<?xml version="1.0" standalone="no"?>
<!DOCTYPE svg PUBLIC "-//W3C//DTD SVG 20010904//EN"
 "http://www.w3.org/TR/2001/REC-SVG-20010904/DTD/svg10.dtd">
<svg version="1.0" xmlns="http://www.w3.org/2000/svg"
 width="339.000000pt" height="399.000000pt" viewBox="0 0 339.000000 399.000000"
 preserveAspectRatio="xMidYMid meet">

<g transform="translate(0.000000,399.000000) scale(0.100000,-0.100000)"
fill="#000000" stroke="none">
<path d="M2436 3754 c-113 -27 -217 -102 -301 -217 l-20 -27 -62 19 c-171 55
-436 64 -625 22 -570 -128 -972 -536 -1095 -1111 -27 -126 -24 -380 5 -517 94
-437 359 -781 750 -976 l83 -41 249 -365 c298 -440 274 -406 287 -398 6 4 126
179 266 390 l255 382 7 175 c4 96 7 188 7 205 -2 38 8 43 79 38 l59 -5 0 41 0
41 -70 0 c-40 0 -70 4 -70 10 0 6 5 10 10 10 6 0 10 9 10 21 0 11 5 17 10 14
6 -3 10 1 10 9 0 9 5 16 10 16 6 0 10 6 10 13 0 6 12 23 26 36 14 13 28 37 31
52 3 16 9 26 14 23 5 -3 9 8 9 24 0 16 6 35 14 42 8 6 12 19 9 27 -4 11 -2 14
5 9 8 -5 12 0 12 12 0 33 24 43 99 41 39 -1 74 1 78 5 4 3 17 -4 30 -16 52
-48 143 -11 143 59 0 71 -85 109 -133 60 -20 -20 -33 -22 -113 -22 l-91 0 2
40 c7 113 -35 263 -99 357 l-25 37 82 3 82 3 0 30 0 30 -111 3 -112 3 -37 34
c-49 47 -157 110 -230 135 -33 11 -116 32 -185 46 -217 43 -260 66 -260 136 0
29 4 38 17 38 9 0 14 3 10 6 -3 4 0 13 8 20 16 17 205 20 205 4 0 -5 9 -10 20
-10 11 0 20 -5 20 -11 0 -5 4 -8 9 -5 5 3 11 -1 15 -9 3 -8 10 -15 17 -15 6 0
24 -13 39 -30 15 -16 34 -30 42 -30 7 0 20 -9 28 -21 13 -18 24 -20 102 -18
48 2 85 6 82 11 -3 4 2 8 10 8 9 0 16 4 16 9 0 5 13 11 29 14 16 3 36 13 44
22 9 8 22 15 30 15 9 0 17 5 19 10 2 6 13 12 25 13 12 0 20 3 18 6 -6 6 44 31
61 31 8 0 14 5 14 10 0 6 9 10 20 10 11 0 20 5 20 10 0 15 57 12 64 -2 5 -10
7 -10 12 0 4 8 30 12 80 12 66 0 78 -3 99 -24 14 -14 26 -30 27 -38 2 -7 8
-18 15 -26 7 -7 10 -19 7 -27 -4 -8 1 -17 9 -21 15 -5 63 -102 70 -140 2 -10
9 -31 15 -46 12 -29 23 -108 26 -178 1 -42 -1 -45 -24 -45 -14 0 -40 12 -58
28 -39 32 -65 34 -109 7 -91 -55 -18 -197 80 -156 18 7 38 20 44 28 13 15 73
13 73 -2 0 -4 -12 -5 -26 -2 -19 3 -32 -2 -50 -22 -14 -14 -34 -26 -46 -26
-12 0 -18 -3 -14 -7 4 -5 35 -6 68 -4 l61 3 -6 -71 c-5 -67 -34 -190 -46 -201
-3 -3 -7 -14 -9 -25 -2 -11 -6 -27 -9 -35 -4 -8 -7 -17 -7 -20 -1 -3 -16 -35
-34 -73 -20 -41 -38 -65 -44 -61 -6 4 -8 3 -5 -3 8 -13 -47 -95 -58 -86 -4 5
-5 3 -2 -3 8 -14 -86 -130 -102 -126 -7 1 -10 -2 -7 -7 7 -10 -90 -101 -108
-101 -6 0 -17 -9 -24 -21 -8 -12 -19 -18 -27 -15 -8 3 -14 1 -12 -3 1 -5 -2
-11 -8 -12 -5 -2 -20 -15 -32 -27 -14 -14 -30 -21 -39 -18 -9 3 -12 1 -9 -4 3
-6 3 -10 -2 -10 -4 0 -17 -7 -27 -15 -19 -15 -19 -16 15 -51 77 -80 164 -98
254 -52 110 57 265 216 373 381 92 143 167 341 197 526 25 150 17 396 -19 538
-34 135 -74 239 -136 346 -27 48 -50 89 -50 90 0 2 18 27 40 57 106 142 123
329 44 489 -101 204 -325 309 -548 255z m268 -125 c77 -38 141 -102 178 -177
30 -61 33 -74 33 -162 0 -85 -3 -101 -29 -154 -38 -77 -101 -140 -179 -177
-58 -28 -69 -30 -162 -27 l-100 2 -78 -42 -77 -43 0 90 c0 81 -2 92 -25 119
-14 17 -37 57 -52 89 -23 48 -27 72 -27 143 0 74 4 93 30 150 72 154 185 223
354 217 66 -2 96 -8 134 -28z m-1334 -352 c-160 -80 -287 -211 -345 -355 -48
-119 -56 -280 -20 -398 8 -26 12 -51 9 -56 -3 -4 -1 -8 4 -8 6 0 24 -24 40
-52 36 -63 56 -90 99 -130 18 -17 31 -34 28 -38 -2 -4 1 -7 8 -7 14 0 140 -83
145 -95 2 -5 8 -6 13 -2 5 3 9 1 9 -5 0 -6 7 -7 17 -4 11 4 14 3 9 -6 -6 -9
-2 -12 10 -11 34 4 55 0 50 -8 -2 -4 12 -9 32 -10 56 -3 145 -24 166 -38 11
-8 30 -11 42 -8 26 7 94 -13 94 -27 0 -5 6 -8 13 -6 6 1 11 -4 9 -11 -1 -7 3
-12 10 -11 26 3 39 -1 33 -11 -3 -5 -2 -10 4 -10 6 0 15 -10 22 -21 8 -15 8
-19 0 -15 -6 4 -11 0 -11 -8 0 -9 -3 -15 -7 -15 -5 1 -67 1 -140 0 -124 -1
-132 -2 -138 -22 -4 -12 -3 -25 2 -30 6 -6 73 -10 151 -10 78 0 142 -4 142 -8
0 -21 -64 -60 -114 -72 -106 -23 -220 16 -302 104 -67 71 -190 99 -278 62 -50
-21 -113 -80 -138 -129 -31 -61 -35 -158 -9 -225 11 -30 17 -59 14 -64 -3 -6
-1 -7 5 -3 7 4 12 1 12 -8 0 -8 20 -29 45 -47 l45 -32 1 -76 c1 -42 3 -92 4
-112 7 -66 -5 -67 -97 -7 -185 124 -352 328 -431 528 -42 106 -87 314 -87 400
0 27 58 33 71 7 17 -31 75 -50 115 -37 28 10 54 35 54 53 0 2 -13 2 -29 -1
-41 -6 -71 13 -71 45 0 36 27 63 63 63 25 0 28 2 17 15 -31 38 -125 23 -150
-25 -7 -13 -21 -20 -41 -20 l-30 0 6 48 c12 87 36 196 57 257 113 339 410 631
735 724 98 28 107 25 33 -12z m483 -82 c78 -16 165 -54 215 -92 76 -58 126
-184 102 -257 -17 -54 -57 -88 -96 -83 -37 5 -81 34 -89 59 -3 9 -15 20 -26
23 -10 4 -19 10 -19 15 0 13 -69 50 -99 53 -15 2 -33 7 -40 11 -6 4 -23 5 -37
2 -14 -4 -24 -2 -24 4 0 16 -147 0 -197 -21 -23 -10 -60 -37 -82 -59 -87 -90
-79 -209 19 -293 52 -44 93 -58 275 -96 166 -34 234 -58 314 -112 127 -85 210
-215 232 -363 44 -296 -156 -560 -471 -622 -210 -41 -457 22 -603 156 -88 80
-115 157 -83 234 22 53 60 76 124 76 54 0 56 -1 112 -59 65 -68 113 -95 207
-117 227 -53 423 65 423 255 0 145 -110 240 -320 276 -132 23 -202 40 -236 58
-16 8 -52 26 -81 40 -28 14 -83 56 -122 95 -154 151 -189 349 -95 541 66 134
188 229 346 271 90 23 254 26 351 5z m1034 -1067 c-3 -8 -6 -5 -6 6 -1 11 2
17 5 13 3 -3 4 -12 1 -19z m-1129 -880 c32 -35 43 -72 31 -107 -28 -81 -146
-81 -179 -1 -26 64 17 130 85 130 30 0 47 -6 63 -22z m-234 -173 c10 -41 79
-102 133 -118 69 -20 115 -6 178 58 28 28 50 56 47 63 -7 23 8 12 23 -18 17
-33 20 -52 4 -30 -9 13 -10 13 -6 0 2 -8 8 -15 13 -15 5 0 28 -21 52 -46 23
-26 57 -53 75 -60 17 -7 33 -14 35 -15 2 -1 -40 -68 -93 -148 l-97 -146 -191
2 -192 3 -98 145 -97 144 42 20 c55 26 112 86 135 141 21 51 28 55 37 20z
m131 -616 c4 -33 5 -62 2 -65 -2 -3 -14 10 -25 28 -11 18 -30 48 -41 66 l-21
32 39 0 39 0 7 -61z"/>
<path d="M2340 3370 c-8 -14 -8 -26 0 -40 10 -20 19 -20 222 -18 188 3 212 5
222 21 8 12 8 22 0 35 -10 15 -34 17 -222 20 -203 2 -212 2 -222 -18z"/>
<path d="M2345 3210 c-15 -17 -16 -24 -7 -45 l12 -25 209 0 c172 0 211 3 221
15 17 21 4 61 -22 69 -13 3 -107 6 -209 6 -173 0 -187 -1 -204 -20z"/>
<path d="M708 1924 c-15 -8 -35 -28 -43 -44 -56 -109 66 -215 173 -150 36 22
52 54 52 107 0 54 -53 103 -111 103 -24 -1 -56 -7 -71 -16z m109 -80 c10 -26
-14 -64 -40 -64 -32 0 -61 33 -52 60 13 41 77 43 92 4z"/>
<path d="M1476 1895 c-9 -24 4 -45 29 -45 13 0 25 7 29 15 9 24 -4 45 -29 45
-13 0 -25 -7 -29 -15z"/>
<path d="M1824 979 c-17 -18 -23 -29 -14 -27 8 2 22 14 32 27 15 22 16 22 21
5 4 -16 5 -16 6 -2 2 29 -15 28 -45 -3z"/>
<path d="M2514 2335 c-8 -32 6 -48 37 -43 19 2 24 9 24 33 0 25 -4 31 -27 33
-22 3 -29 -2 -34 -23z"/>
<path d="M2812 2312 c13 -16 25 -25 26 -20 4 8 -35 48 -45 48 -3 0 6 -13 19
-28z"/>
<path d="M2656 2313 c-6 -14 -5 -15 5 -6 7 7 10 15 7 18 -3 3 -9 -2 -12 -12z"/>
<path d="M2633 2279 c-2 -23 3 -25 10 -4 4 8 3 16 -1 19 -4 3 -9 -4 -9 -15z"/>
<path d="M2630 2183 c0 -6 8 -17 18 -24 16 -13 16 -13 2 6 -8 11 -16 22 -17
24 -2 2 -3 0 -3 -6z"/>
<path d="M2694 2115 c11 -8 26 -15 33 -15 22 0 14 8 -19 19 -30 10 -31 9 -14
-4z"/>
<path d="M2737 2023 c-3 -5 18 -7 46 -5 86 5 96 9 25 11 -37 0 -69 -2 -71 -6z"/>
<path d="M2795 1900 c3 -5 8 -10 11 -10 2 0 4 5 4 10 0 6 -5 10 -11 10 -5 0
-7 -4 -4 -10z"/>
<path d="M2786 1845 c4 -27 8 -52 10 -54 9 -10 3 76 -7 89 -7 11 -8 1 -3 -35z"/>
<path d="M2468 1873 c7 -3 16 -2 19 1 4 3 -2 6 -13 5 -11 0 -14 -3 -6 -6z"/>
<path d="M2715 1720 c-16 -7 -17 -9 -3 -9 9 -1 20 4 23 9 7 11 7 11 -20 0z"/>
<path d="M2700 1680 c0 -5 5 -10 11 -10 5 0 7 5 4 10 -3 6 -8 10 -11 10 -2 0
-4 -4 -4 -10z"/>
<path d="M2416 1393 c-25 -24 -26 -28 -11 -39 12 -9 13 -13 3 -18 -7 -3 1 -4
17 -3 17 1 35 9 42 17 15 18 17 54 4 45 -6 -3 -14 2 -19 10 -7 14 -12 12 -36
-12z"/>
<path d="M2260 1220 c0 -5 5 -10 11 -10 5 0 7 5 4 10 -3 6 -8 10 -11 10 -2 0
-4 -4 -4 -10z"/>
</g>
</svg>
